Coordinates
version=1
nRows=14
nColumns=36
inDegrees=yes

Units are S.I. units (second, meters, Newtons, ...)
If the header above contains a line with 'inDegrees', this indicates whether rotational values are in degrees (yes) or radians (no).

endheader
time	pelvis_tilt	pelvis_list	pelvis_rotation	pelvis_tx	pelvis_ty	pelvis_tz	hip_flexion_r	hip_adduction_r	hip_rotation_r	knee_angle_r	knee_angle_r_beta	ankle_angle_r	subtalar_angle_r	mtp_angle_r	hip_flexion_l	hip_adduction_l	hip_rotation_l	knee_angle_l	knee_angle_l_beta	ankle_angle_l	subtalar_angle_l	mtp_angle_l	lumbar_extension	lumbar_bending	lumbar_rotation	arm_flex_r	arm_add_r	arm_rot_r	elbow_flex_r	pro_sup_r	arm_flex_l	arm_add_l	arm_rot_l	elbow_flex_l	pro_sup_l
      4.45000000	     -5.71781184	     -0.29778620	      0.46959552	     -0.33637046	      1.27361538	     -0.06468497	      0.92517738	      0.97366470	     -7.48497108	      9.66350802	      0.16866003	     14.55235549	    -13.06520758	     -7.49999987	      3.57311665	     -1.19492536	     -5.43075446	     12.62962040	      0.22042846	     12.23017040	     -7.87688318	     -7.49999987	     -5.03413444	     -0.12871038	     -0.61775066	      5.92672764	     -7.91845313	     26.51124044	     20.42077358	     79.43948246	      0.62840236	    -12.18147373	     20.42387908	     31.12652513	     91.09791176
      4.46666670	     -5.71196009	     -0.30319363	      0.47992349	     -0.33645573	      1.27382182	     -0.06484916	      0.92595363	      0.98227168	     -7.34591369	      9.64290558	      0.16830045	     14.46169833	    -13.39398651	     -7.49999987	      3.48676730	     -1.19415586	     -5.37060581	     12.39111597	      0.21626577	     12.18761727	     -7.95161500	     -7.49999987	     -5.06297258	     -0.11971821	     -0.76025791	      5.97528826	     -7.86900331	     26.39071244	     20.38750089	     78.02057422	      0.65966940	    -12.19688911	     20.34492146	     31.17048900	     89.67397760
      4.48333330	     -5.78014612	     -0.34855791	      0.48232816	     -0.33626155	      1.27394682	     -0.06484886	      1.03132379	      1.00704853	     -7.49462701	      9.62264356	      0.16794681	     14.49409240	    -13.23803641	     -7.49999987	      3.55183097	     -1.22534483	     -5.24000187	     12.25790738	      0.21394084	     12.23609742	     -7.91242571	     -7.49999987	     -4.85778928	     -0.02602506	     -0.64649755	      5.92247344	     -7.96802827	     27.62723873	     20.31651766	     76.40164895	      1.06547744	    -12.24079984	     21.97780774	     30.47335172	     87.36042258
      4.50000000	     -5.77294007	     -0.33070252	      0.42614759	     -0.33640038	      1.27400507	     -0.06501565	      1.03037996	      0.98049574	     -7.38711927	      9.59984498	      0.16754890	     14.52558777	    -13.33454236	     -7.49999987	      3.46122852	     -1.17774024	     -5.26985045	     12.10253624	      0.21122911	     12.46019939	     -7.63425271	     -7.49999987	     -4.91599781	      0.05029369	     -0.73687610	      6.03780499	     -7.96031658	     27.50607708	     20.42490757	     75.51687645	      0.94041331	    -12.24177775	     21.70445208	     30.68130215	     86.25623275
      4.51666670	     -5.76186237	     -0.36210336	      0.45044735	     -0.33627889	      1.27427544	     -0.06491242	      1.03048199	      1.02577255	     -7.36255428	      9.60897976	      0.16770833	     14.53379690	    -13.39017977	     -7.49999987	      3.44088047	     -1.21794079	     -5.29613019	     12.14478895	      0.21196655	     12.56466450	     -7.39769737	     -7.49999987	     -4.95355330	      0.07945180	     -0.77443562	      6.07853997	     -7.93668333	     27.56494424	     20.54159884	     75.05440290	      0.98562659	    -12.20617560	     21.62913089	     30.66066717	     85.56393718
      4.53333330	     -5.75810481	     -0.37760303	      0.41738720	     -0.33640315	      1.27425142	     -0.06501386	      0.88493535	      1.07877152	     -7.22297559	      9.32750292	      0.16279564	     14.48428577	    -13.56071217	     -7.49999987	      3.57347309	     -1.23947932	     -5.23933593	     12.43501928	      0.21703203	     12.63364191	     -7.51737136	     -7.49999987	     -4.93137180	      0.11618831	     -0.89742861	      6.10252070	     -7.84083945	     27.71961760	     20.49896722	     74.45053407	      0.97425396	    -12.19798833	     21.63764829	     30.59934279	     84.81436822
      4.55000000	     -5.94289355	     -0.41000590	      0.36580168	     -0.34296060	      1.27653741	     -0.06788288	      1.27872363	      1.04471291	     -7.24953566	      9.50137671	      0.16583031	     14.52772208	    -13.50455325	     -7.49999987	      3.95006626	     -1.21932628	     -5.24182828	     12.64427621	      0.22068425	     12.63111172	     -7.50619614	     -7.49999987	     -4.90882896	      0.25155840	     -0.93170940	      6.23117894	     -7.97604753	     27.23393030	     20.72229756	     79.45244351	      1.11960563	    -12.05088935	     20.97548429	     30.47206008	     90.73571124
      4.56666670	     -5.95257402	     -0.41092019	      0.38456986	     -0.33622562	      1.27655799	     -0.06502440	      1.29700586	      1.04200026	     -7.24790167	      9.50088913	      0.16582180	     14.52341133	    -13.50183264	     -7.49999987	      3.90290458	     -1.22647681	     -5.24196103	     12.66178543	      0.22098985	     12.62624357	     -7.50670627	     -7.49999987	     -4.91459986	      0.25983898	     -0.93627502	      6.23702428	     -7.97629291	     27.23274924	     20.72425081	     79.45242639	      1.12842567	    -12.04602893	     20.97483413	     30.47343438	     90.73556271
      4.58333330	     -5.96844347	     -0.39404316	      0.19468451	     -0.33606511	      1.27645942	     -0.06464438	      1.35097578	      1.01888930	     -7.18618008	      9.53551990	      0.16642622	     14.40094293	    -13.32370206	     -7.49999987	      3.99426401	     -1.24776028	     -5.43736953	     12.97476473	      0.22645236	     12.49416165	     -7.68019690	     -7.49999987	     -4.92843510	      0.29482684	     -0.97273570	      6.22532486	     -7.88290476	     26.90537900	     20.99932767	     78.06180980	      1.09435880	    -12.03186544	     21.36167750	     30.21275435	     88.37766491
      4.60000000	     -5.80162325	     -0.40721382	      0.16545664	     -0.33620377	      1.27640801	     -0.06468046	      1.19403625	      1.06395658	     -7.19719942	      9.48700827	      0.16557953	     14.36498094	    -13.17317628	     -7.49999987	      3.91909882	     -1.31419528	     -5.45529337	     13.30832792	      0.23227414	     12.30097145	     -7.96507159	     -7.49999987	     -5.18129369	      0.32073270	     -0.95825667	      6.17643437	     -7.87554636	     26.67124439	     21.28128676	     77.86428294	      1.05295563	    -12.00923768	     21.11582330	     30.29691778	     87.86983572
      4.61666670	     -5.73027362	     -0.40326181	      0.18251851	     -0.33599264	      1.27426932	     -0.06465991	      1.12616519	      1.07746501	     -7.30973035	      9.49773609	      0.16576677	     14.31102330	    -13.07203829	     -7.49999987	      3.99441006	     -1.35578046	     -5.45668980	     13.73666005	      0.23974995	     12.24832355	     -8.18607242	     -7.49999987	     -5.22628683	      0.32768869	     -0.98194132	      6.10104747	     -7.87024483	     26.47511408	     21.57480455	     76.88279305	      0.86297589	    -12.04474413	     20.96393614	     30.56470920	     86.38402688
      4.63333330	     -5.70513500	     -0.41270586	      0.17605247	     -0.33623882	      1.27411531	     -0.06472327	      1.13594509	      1.13612286	     -7.24006432	      9.58557187	      0.16729979	     14.34329324	    -13.21917718	     -7.49999987	      4.10858113	     -1.37911591	     -5.36680074	     14.06540402	      0.24548761	     12.28370046	     -8.44040515	     -7.49999987	     -5.28037605	      0.33196318	     -0.92772139	      6.05948779	     -7.86207722	     26.37440655	     21.59067647	     76.24848919	      0.64779301	    -12.08188737	     20.79079160	     30.83145792	     85.67597702
      4.65000000	     -5.72340005	     -0.44640033	      0.23347854	     -0.33608486	      1.27451294	     -0.06466948	      1.13957330	      1.18755775	     -7.18910671	      9.59929430	      0.16753929	     14.33140373	    -13.25620338	     -7.49999987	      4.27009653	     -1.43521435	     -5.32907074	     14.37370181	      0.25086842	     12.29270562	     -8.64809456	     -7.49999987	     -5.22049511	      0.37965762	     -1.07079705	      6.00717206	     -7.83029673	     26.24427156	     21.79952754	     75.28575019	      0.48807774	    -12.17182213	     20.72444185	     31.15032628	     84.50737456
      4.66666670	     -5.77361305	     -0.45676113	      0.24284014	     -0.33605080	      1.27432878	     -0.06481394	      1.12978037	      1.20422974	     -7.24579301	      9.60665437	      0.16766775	     14.42628073	    -13.07306855	     -7.49999987	      4.38201996	     -1.44213766	     -5.30780562	     14.49250111	      0.25294186	     12.31879825	     -8.73052302	     -7.49999987	     -5.07751595	      0.41342018	     -1.05248598	      5.83521547	     -7.84323052	     26.05179827	     22.05351912	     73.97611520	      0.22211719	    -12.19286418	     20.56835986	     31.49011714	     82.76022326
